<?xml version="1.0" encoding="UTF-8" standalone="no"?>
<!-- Created with Inkscape (http://www.inkscape.org/) -->

<svg
   width="505.82996"
   height="129.89664"
   viewBox="0 0 505.82996 129.89664"
   version="1.1"
   id="svg1"
   xml:space="preserve"
   xmlns="http://www.w3.org/2000/svg"
   xmlns:svg="http://www.w3.org/2000/svg"><defs
     id="defs1" /><g
     id="layer1"
     transform="translate(-1647.4747,-381.71386)"><path
       style="fill:#000000;stroke-width:0.606304"
       d="m 1698.5769,510.32021 -5.7599,-1.20408 -5.0465,-2.05254 -5.0465,-2.05254 -4.3512,-2.728 -4.3512,-2.72796 -4.1694,-3.52163 -4.1694,-3.52167 -3.8844,-4.85042 -3.8844,-4.85043 -2.9477,-5.75987 -2.9477,-5.7599 -1.516,-4.85046 -1.516,-4.85043 -0.7559,-4.71837 -0.756,-4.71837 0.3455,-7.71084 0.3456,-7.71087 1.3324,-5.15357 1.3324,-5.15358 2.2251,-5.15358 2.225,-5.15359 3.0035,-4.54728 3.0035,-4.54727 4.2014,-4.4284 4.2015,-4.4284 3.9844,-3.00774 3.9844,-3.00774 6.0631,-2.98758 6.063,-2.98757 5.1576,-1.48838 5.1577,-1.48839 5.8985,-0.74244 5.8984,-0.74244 6.6759,0.69901 6.6759,0.69901 5.3076,1.52878 5.3075,1.52879 4.8504,2.34146 4.8504,2.34146 3.941,3.01718 3.941,3.01718 2.3555,2.44915 2.3555,2.44916 4.0042,-2.68621 4.0042,-2.68621 h 0.7504 0.7504 l 0.8572,1.36418 0.8571,1.36419 0.2955,13.47737 0.2955,13.47736 -0.8321,0.69055 -0.832,0.69054 -1.3677,-0.31222 -1.3676,-0.31222 -12.1261,-4.49947 -12.1261,-4.49947 -0.1841,-1.54561 -0.1841,-1.5456 3.064,-2.2013 3.0641,-2.20129 v -0.56673 -0.56672 l -2.5768,-2.09148 -2.5768,-2.09149 -3.0315,-1.84823 -3.0315,-1.84822 -4.7417,-1.89818 -4.7418,-1.89818 -4.5577,-0.87204 -4.5577,-0.87204 -4.6456,0.008 -4.6455,0.008 -5.4567,1.13 -5.4568,1.13 -4.7194,1.8367 -4.7194,1.83669 -4.072,2.42098 -4.072,2.42097 -4.0937,3.75369 -4.0937,3.75369 -3.039,4.62916 -3.039,4.62916 -1.7984,4.66338 -1.7984,4.66339 -0.9213,5.28339 -0.9214,5.28341 v 4.08531 4.08531 l 0.9214,5.28339 0.9213,5.28339 1.7984,4.66339 1.7984,4.66339 3.0216,4.60266 3.0216,4.60268 4.3448,4.34478 4.3448,4.34477 4.9199,3.03023 4.9199,3.03024 5.5909,1.79293 5.591,1.79293 5.6236,0.63703 5.6236,0.63705 5.762,-0.68416 5.7619,-0.68416 5.4567,-1.74952 5.4568,-1.74953 4.6819,-2.74765 4.6819,-2.74762 3.8857,-3.6349 3.8856,-3.63487 2.4576,-3.18535 2.4575,-3.18538 2.1558,-4.36214 2.1558,-4.36216 1.2109,-4.42505 1.211,-4.42505 0.5987,-5.7599 0.5986,-5.75986 -0.3464,-3.94099 -0.3464,-3.94096 0.6612,-1.69667 0.6612,-1.69666 2.2239,-0.92922 2.224,-0.92922 1.927,0.36152 1.9271,0.36154 1.4612,1.55345 1.4611,1.55348 0.2036,7.65303 0.2036,7.653 -0.7115,4.86644 -0.7116,4.86645 -1.5338,4.86478 -1.5337,4.86478 -1.8307,3.63782 -1.8306,3.63785 -2.4501,3.63782 -2.4501,3.63782 -4.2878,4.44882 -4.2879,4.44883 -3.941,2.89122 -3.9409,2.89126 -3.941,2.14961 -3.941,2.14961 -4.5473,1.62787 -4.5473,1.62791 -5.9329,1.16008 -5.933,1.1601 -7.1026,-0.043 -7.1025,-0.0431 z m 6.9725,-16.2271 -2.4252,-0.36871 -0.1574,-29.57547 -0.1574,-29.57548 7.5886,0.16974 7.5885,0.16973 0.1476,29.512 0.1477,29.51196 -1.7432,0.34848 -1.7431,0.34851 -3.4104,-0.0861 -3.4105,-0.086 z m 17.886,-38.49007 v -37.36346 h 7.8869 7.8871 l -0.1567,34.09283 -0.1566,34.09284 -5.7599,2.8886 -5.7599,2.8886 -1.9705,0.38204 -1.9704,0.38204 z m -31.9263,33.91628 -5.3722,-2.68933 -2.3611,-2.04097 -2.361,-2.04097 -0.1016,-15.88405 -0.1015,-15.88402 h 8.0763 8.0763 v 20.61433 20.61435 h -0.2415 -0.2416 z m 164.9089,-15.2977 0.4042,-0.4042 0.4042,0.4042 0.4042,0.4042 h -0.8084 -0.8084 z m -4.1478,-1.8621 -3.0362,-1.08571 -2.2356,-1.7052 -2.2356,-1.70517 -1.8109,-2.83341 -1.8109,-2.83345 -0.723,-2.89325 -0.723,-2.89325 0.2653,-5.05432 0.2653,-5.05432 1.6595,-3.39187 1.6594,-3.3919 2.9435,-2.64641 2.9435,-2.64641 3.1586,-1.02014 3.1587,-1.02015 h 3.155 3.155 l 3.0826,0.91545 3.0827,0.91546 3.1157,2.8012 3.1156,2.80123 0.9786,1.89164 0.9788,1.89163 0.8078,3.03152 0.8078,3.03152 0.01,3.18312 0.01,3.18308 h -13.9449 -13.945 l 0.01,0.45474 0.01,0.4547 0.6206,2.23469 0.6207,2.23466 1.819,1.5306 1.8191,1.53063 2.1627,0.40572 2.1626,0.40569 2.3583,-0.70653 2.3583,-0.70656 1.6758,-2.10024 1.6758,-2.10025 h 4.6988 l 4.6989,-3e-5 v 0.93361 0.9336 l -1.2793,2.55265 -1.2793,2.55262 -1.6007,1.7239 -1.6006,1.72384 -3.0315,1.56273 -3.0315,1.56273 -4.8505,0.21567 -4.8504,0.21567 z m 14.8569,-24.86579 v -1.06104 l -1.159,-1.90073 -1.159,-1.90074 -2.7997,-1.06918 -2.7996,-1.06921 -2.2789,0.68275 -2.2789,0.68276 -1.5989,1.68089 -1.5989,1.68085 -0.4121,1.66735 -0.4121,1.66734 h 8.2485 8.2508 z m 23.0026,24.77978 -2.7675,-1.08296 -1.8739,-1.38547 -1.874,-1.38545 -1.5731,-2.89042 -1.5732,-2.89042 v -1.58528 -1.58528 l 2.2736,-0.007 2.2737,-0.007 2.2736,-0.37581 2.2737,-0.3758 v 0.97921 0.97922 l 1.7287,1.93483 1.7288,1.93486 3.7236,0.26934 3.7237,0.26934 1.5201,-0.99598 1.5201,-0.99601 v -1.45847 -1.45847 l -0.9299,-0.9299 -0.93,-0.92993 -2.2531,-0.62576 -2.2532,-0.62578 -0.9337,-0.004 -0.9336,-0.004 -3.59,-0.93506 -3.59,-0.9351 -2.0457,-1.56037 -2.0458,-1.56037 -1.1587,-1.90026 -1.1587,-1.90026 v -3.66801 -3.66801 l 1.6285,-2.51163 1.6286,-2.5116 2.9876,-1.62609 2.9876,-1.62606 3.7643,-0.30216 3.7643,-0.30216 3.594,1.04095 3.5941,1.04096 2.4801,2.58099 2.4802,2.58102 0.6719,2.64742 0.672,2.64745 -0.1206,0.10721 -0.1206,0.10722 -4.4315,0.56498 -4.4316,0.56502 -0.8222,-1.96803 -0.8224,-1.968 -1.224,-0.65511 -1.2286,-0.6546 h -2.162 -2.1619 l -1.2126,1.21261 -1.2126,1.2126 v 0.90945 0.90947 l 1.109,1.10906 1.1092,1.10907 5.4086,1.06369 5.4087,1.06372 2.491,1.08983 2.491,1.08985 1.729,2.26691 1.7291,2.2669 0.2402,3.77337 0.2403,3.7734 -1.0432,2.06528 -1.0433,2.06532 -1.5583,1.66558 -1.5584,1.66558 -3.2456,1.21437 -3.2456,1.21433 -4.6761,-0.0283 -4.6762,-0.0283 z m 39.8534,0.43654 -2.324,-0.65367 -2.3078,-2.20152 -2.3079,-2.20151 -0.67,-2.42525 -0.6699,-2.42521 -0.01,-10.15556 v -10.1556 h -3.3347 -3.3346 v -4.54729 -4.54726 h 3.3346 3.3347 v -5.30517 -5.30516 l 5.1509,-0.0221 5.1511,-0.0221 v 5.3272 5.32724 h 5.1536 5.1536 v 4.54729 4.54726 h -5.1953 -5.1953 l 0.1932,9.75101 0.1933,9.75097 1.1769,0.85932 1.177,0.85936 h 3.7753 3.7753 l 0.2013,4.30378 0.2014,4.30379 -0.3612,0.22149 -0.3613,0.22152 -4.7923,0.3004 -4.7924,0.30039 z m 24.45,0.13669 -1.5196,-0.46229 -1.9692,-1.01829 -1.9691,-1.01826 -1.6648,-2.51563 -1.6647,-2.5156 0.01,-3.68209 0.01,-3.68212 1.2423,-2.11999 1.2423,-2.11999 2.0512,-1.38231 2.0512,-1.38231 3.3728,-0.9987 3.3727,-0.99872 6.063,-0.3494 6.0631,-0.34944 -0.099,-2.05531 -0.099,-2.05535 -1.4497,-1.4497 -1.4497,-1.44973 -2.1612,-0.35072 -2.1611,-0.35071 -2.1461,1.01838 -2.146,1.01835 -0.7358,1.77637 -0.7357,1.77637 h -5.4241 -5.4241 l 0.4167,-1.36417 0.4167,-1.36421 0.7778,-1.90351 0.778,-1.90354 2.2195,-2.45674 2.2196,-2.45675 2.8413,-1.09644 2.8355,-1.09648 h 5.1535 5.1536 l 3.3996,1.59408 3.3995,1.59411 1.5609,2.04642 1.5609,2.04643 0.6283,1.65261 0.6283,1.65263 0.063,14.71488 0.063,14.71491 -4.8936,0.17608 -4.8936,0.17609 v -2.17514 -2.17518 l -2.2736,1.77256 -2.2737,1.77252 -2.0609,0.68127 -2.061,0.68124 -3.3958,-0.0522 -3.3957,-0.0521 z m 12.8612,-8.89583 1.6827,-0.87009 0.8679,-1.35156 0.8681,-1.35159 0.1987,-2.42521 0.1987,-2.42521 -2.7284,-0.19814 -2.7283,-0.19813 -3.2645,0.40351 -3.2644,0.40349 -1.4344,1.43443 -1.4344,1.43439 v 1.46158 1.46154 l 1.2247,1.55694 1.2247,1.55694 1.352,0.27906 1.3522,0.27909 2.101,-0.29048 2.1012,-0.29046 z m 62.5307,8.88172 -1.9158,-0.4565 -2.0252,-1.17979 -2.0252,-1.1798 -1.5157,-2.69735 -1.5158,-2.69739 -0.1993,-11.03499 -0.1993,-11.03503 -2.9918,-0.18161 -2.9917,-0.1816 0.01,-0.45471 0.01,-0.45473 v -3.94099 -3.94096 h 3.0315 3.0315 v -5.30517 -5.30516 h 5.1536 5.1536 v 5.30516 5.30517 h 5.1535 5.1536 v 4.54726 4.54729 h -4.8504 -4.8504 v 9.65755 9.65754 l 0.9527,0.95278 0.9528,0.95276 h 4.0747 4.0747 l -0.025,4.38313 -0.025,4.38317 -2.4252,0.43233 -2.4252,0.43233 -2.4253,-0.0271 -2.4252,-0.0271 z m 27.6538,-0.20619 -2.7584,-0.78293 -2.0921,-1.29721 -2.0921,-1.2972 -1.9377,-2.01049 -1.9376,-2.01051 -1.687,-3.63782 -1.6871,-3.63782 -0.013,-5.16633 -0.013,-5.16631 1.9829,-4.02794 1.983,-4.02791 2.2335,-1.96106 2.2335,-1.96105 3.3624,-1.56001 3.3623,-1.55999 h 4.8504 4.8504 l 3.3624,1.55999 3.3623,1.56001 2.1269,1.86741 2.1269,1.86745 1.5824,2.92168 1.5823,2.92168 0.6555,3.57975 0.6555,3.57974 -0.6352,3.97616 -0.6352,3.97615 -1.6026,2.9446 -1.6027,2.94459 -2.0253,1.77828 -2.0254,1.77831 -3.0939,1.5678 -3.0939,1.5678 -4.311,0.24804 -4.3109,0.24804 z m 9.5417,-9.91829 2.1162,-1.00421 1.4987,-2.26464 1.4986,-2.26464 0.3456,-3.34817 0.3455,-3.34814 -1.344,-2.77646 -1.3441,-2.77647 -1.9184,-1.36844 -1.9185,-1.36841 h -3.0315 -3.0315 l -1.9842,1.41524 -1.9843,1.41525 -1.1988,2.35001 -1.1989,2.34998 0.013,2.90411 0.013,2.90409 1.1287,2.4852 1.1286,2.4852 1.738,1.21777 1.738,1.21774 0.9095,0.34174 0.9094,0.34173 1.7273,0.0478 1.7272,0.0479 z m 41.2746,10.10136 -1.6587,-0.49948 -2.0021,-1.23737 -2.0022,-1.23734 -1.3636,-2.42625 -1.3636,-2.42623 -0.04,-3.35745 -0.04,-3.35747 1.1764,-2.27979 1.1764,-2.2798 2.0313,-1.38022 2.0311,-1.38025 3.3728,-0.9987 3.3728,-0.99872 6.063,-0.3494 6.063,-0.34944 0.1957,-1.70651 0.1956,-1.70654 -0.932,-1.42246 -0.9321,-1.42247 -2.183,-0.72046 -2.1831,-0.72046 -1.9855,0.37249 -1.9856,0.37249 -1.2193,1.3549 -1.2192,1.3549 -0.3744,1.06104 -0.3745,1.06103 h -5.2484 -5.2484 l 0.3858,-1.92889 0.3858,-1.9289 1.5494,-2.64393 1.5494,-2.64396 2.4291,-1.75958 2.429,-1.75954 3.4388,-0.71391 3.4388,-0.71389 3.7473,0.34993 3.7472,0.34991 2.3189,0.96722 2.3189,0.96723 2.0222,1.93975 2.0222,1.93975 1.0093,1.81892 1.0093,1.81891 0.1978,15.33445 0.1978,15.33443 -5.0482,-0.17684 -5.0482,-0.17683 0.055,-1.97051 0.055,-1.97048 h -0.2322 -0.2322 l -1.3389,1.28554 -1.3388,1.28554 -2.4252,1.12637 -2.4252,1.12634 -3.941,-0.0388 -3.941,-0.0388 z m 12.8755,-8.50558 0.9094,-0.48024 1.3598,-1.45415 1.3597,-1.45417 0.39,-2.84565 0.39,-2.84561 -3.8718,0.0263 -3.8718,0.0263 -2.7063,0.52218 -2.7064,0.52218 -1.083,1.33748 -1.0831,1.33751 v 1.36683 1.36683 l 1.2247,1.55694 1.2248,1.55694 1.352,0.27375 1.3521,0.27376 2.4252,-0.30359 2.4252,-0.30358 z m -323.4886,7.74511 -0.2907,-0.75787 0.1581,-26.98053 0.1582,-26.98052 h 13.0355 13.0355 l 2.9731,1.14675 2.9731,1.14674 2.3791,2.14945 2.3793,2.14946 1.5873,3.06998 1.5874,3.07 0.033,4.85042 0.033,4.85043 -1.6995,3.46075 -1.6994,3.46072 -2.3494,1.8607 -2.3493,1.8607 -1.8075,0.63008 -1.8073,0.63008 6.3902,8.90292 6.3902,8.90296 1.1333,1.25165 1.1333,1.25169 v 0.43552 0.4355 l -6.7205,-0.17144 -6.7205,-0.1714 -6.3188,-9.62357 -6.3187,-9.62354 -3.0282,-0.0773 -3.0283,-0.0773 6e-4,9.85246 3e-4,9.85242 h -5.4757 -5.4758 z m 24.4195,-29.36207 2.1439,-1.01736 1.1894,-2.6888 1.1894,-2.68877 -0.39,-2.50847 -0.3899,-2.50846 -0.7297,-0.93728 -0.7297,-0.93728 -1.4991,-1.03321 -1.499,-1.03321 h -6.2313 -6.2313 v 8.1851 8.18511 h 5.5167 5.5166 z m 165.6823,10.41506 v -19.70485 h 4.8504 4.8504 l 0.4548,-0.0128 0.4547,-0.0128 0.1879,2.13145 0.1881,2.13141 1.934,-1.82114 1.9341,-1.82115 2.1221,-0.59739 2.122,-0.59738 2.5768,-0.004 2.5768,-0.003 v 5.15356 5.1536 l -1.9705,0.004 -1.9705,0.004 -2.4252,0.66104 -2.4252,0.66101 -1.4218,1.3061 -1.4217,1.30606 -0.8519,1.63722 -0.8518,1.63721 v 11.24622 11.24673 h -5.4568 -5.4567 z m 101.007,18.80371 -1.7615,-0.94354 -0.796,-1.04812 -0.7961,-1.04813 -0.019,-2.46247 -0.019,-2.46247 1.2708,-1.36409 1.2709,-1.36405 1.5628,-0.59423 1.5628,-0.59419 1.6375,0.35964 1.6374,0.35966 1.3385,1.4247 1.3384,1.42471 0.3218,2.39881 0.3218,2.39882 -1.7357,1.90643 -1.7356,1.9064 -1.8189,0.32283 -1.8189,0.32282 z m 53.1374,-18.86161 0.1599,-19.76278 h 5.1536 5.1535 l 0.1599,19.76278 0.1599,19.76278 h -5.4733 -5.4733 z m -197.7983,9.15245 v -0.30313 h 0.3032 0.3031 v 0.30313 0.30317 h -0.3031 -0.3032 z m -65.4808,-12.12607 v -0.30313 h 0.3031 0.3032 v 0.30313 0.30317 h -0.3032 -0.3031 z m 78.8195,-1.81891 v -0.30313 h 0.3031 0.3032 v 0.30313 0.30317 h -0.3032 -0.3031 z m 12.1261,-1.2126 v -0.30314 h 0.3031 0.3032 v 0.30314 0.30316 h -0.3032 -0.3031 z m 43.0475,-5.45674 v -0.30313 h 0.3032 0.3031 v 0.30313 0.30317 h -0.3031 -0.3032 z m 131.7587,-13.31664 -1.9312,-0.83995 -1.0077,-1.94865 -1.0077,-1.94866 0.373,-1.86457 0.3728,-1.86459 1.6185,-1.68926 1.6184,-1.68927 2.4634,0.0135 2.4633,0.0134 1.2933,1.04756 1.2932,1.04755 0.6773,1.32432 0.6772,1.32433 v 1.72385 1.72387 l -0.9887,1.41156 -0.9887,1.41156 -2.0234,0.84541 -2.0233,0.84541 -0.4742,-0.0237 -0.4742,-0.0237 z"
       id="path1" /></g></svg>
